<svg width="260" height="314" viewBox="0 0 260 314" fill="none" xmlns="http://www.w3.org/2000/svg">
<path d="M96.6667 54C96.6667 51.5277 97.3998 49.111 98.7733 47.0554C100.147 44.9998 102.099 43.3976 104.383 42.4515C106.667 41.5054 109.181 41.2579 111.605 41.7402C114.03 42.2225 116.257 43.413 118.006 45.1612C119.754 46.9093 120.944 49.1366 121.426 51.5614C121.909 53.9861 121.661 56.4995 120.715 58.7835C119.769 61.0676 118.167 63.0199 116.111 64.3934C114.056 65.7669 111.639 66.5 109.167 66.5C105.851 66.5 102.672 65.183 100.328 62.8388C97.9836 60.4946 96.6667 57.3152 96.6667 54ZM130 95.6667L113.333 83.1667L88.3333 116.5H171.667L155 66.5L130 95.6667Z" fill="black"/>
<path d="M93.9625 179L100.436 150.92H106.442L99.9685 179H93.9625ZM104.294 179L108.857 159.11H114.59L113.537 163.79H113.654L110.144 179H104.294ZM117.632 179L120.323 167.183C120.609 165.883 120.544 164.921 120.128 164.297C119.738 163.647 119.023 163.322 117.983 163.322C116.709 163.322 115.578 163.764 114.59 164.648C113.628 165.506 112.965 166.741 112.601 168.353L113.186 163.556C113.94 162.1 115.058 160.93 116.54 160.046C118.048 159.162 119.647 158.72 121.337 158.72C123.443 158.72 124.951 159.37 125.861 160.67C126.797 161.97 126.953 163.972 126.329 166.676L123.482 179H117.632ZM131.009 179L133.7 167.183C133.986 165.883 133.921 164.921 133.505 164.297C133.115 163.647 132.4 163.322 131.36 163.322C130.086 163.322 128.955 163.764 127.967 164.648C126.979 165.506 126.303 166.741 125.939 168.353L125.744 163.556C126.888 162.1 128.227 160.93 129.761 160.046C131.295 159.162 132.816 158.72 134.324 158.72C135.728 158.72 136.898 159.058 137.834 159.734C138.77 160.384 139.407 161.307 139.745 162.503C140.083 163.699 140.07 165.09 139.706 166.676L136.859 179H131.009ZM149.738 187.385C148.048 187.385 146.488 187.125 145.058 186.605C143.628 186.111 142.484 185.37 141.626 184.382C140.768 183.42 140.339 182.25 140.339 180.872H145.76C145.89 181.314 146.28 181.678 146.93 181.964C147.606 182.25 148.672 182.393 150.128 182.393C151.454 182.393 152.559 182.081 153.443 181.457C154.353 180.859 154.951 179.936 155.237 178.688L156.056 175.256L156.407 175.373C155.861 176.647 154.99 177.635 153.794 178.337C152.598 179.039 151.181 179.39 149.543 179.39C147.229 179.39 145.396 178.688 144.044 177.284C142.692 175.88 142.016 173.878 142.016 171.278C142.016 169.562 142.289 167.95 142.835 166.442C143.381 164.934 144.148 163.608 145.136 162.464C146.124 161.294 147.268 160.384 148.568 159.734C149.868 159.058 151.272 158.72 152.78 158.72C154.106 158.72 155.25 158.967 156.212 159.461C157.174 159.955 157.902 160.631 158.396 161.489C158.916 162.347 159.111 163.322 158.981 164.414H158.747L159.917 159.11H165.611L161.009 179.234C160.437 181.808 159.215 183.81 157.343 185.24C155.471 186.67 152.936 187.385 149.738 187.385ZM151.961 174.905C152.637 174.905 153.261 174.775 153.833 174.515C154.431 174.255 154.951 173.904 155.393 173.462C155.861 173.02 156.264 172.513 156.602 171.941C156.94 171.343 157.187 170.719 157.343 170.069C157.525 169.393 157.616 168.717 157.616 168.041C157.616 166.637 157.252 165.545 156.524 164.765C155.822 163.985 154.899 163.595 153.755 163.595C152.637 163.595 151.649 163.933 150.791 164.609C149.959 165.259 149.296 166.104 148.802 167.144C148.334 168.184 148.1 169.289 148.1 170.459C148.1 171.863 148.451 172.955 149.153 173.735C149.881 174.515 150.817 174.905 151.961 174.905ZM95.9239 227L102.398 198.92H110.159L116.555 223.724L114.878 224.192L120.728 198.92H126.578L120.104 227H112.343L105.908 202.196L107.585 201.728L101.774 227H95.9239ZM134.952 227.39C133.002 227.39 131.286 227 129.804 226.22C128.348 225.44 127.217 224.361 126.411 222.983C125.605 221.579 125.202 219.954 125.202 218.108C125.202 216.496 125.501 215.001 126.099 213.623C126.723 212.219 127.581 211.01 128.673 209.996C129.765 208.956 131.039 208.15 132.495 207.578C133.951 207.006 135.537 206.72 137.253 206.72C139.229 206.72 140.945 207.11 142.401 207.89C143.883 208.644 145.027 209.71 145.833 211.088C146.665 212.44 147.081 214.039 147.081 215.885C147.081 217.497 146.769 219.005 146.145 220.409C145.521 221.813 144.65 223.035 143.532 224.075C142.44 225.115 141.153 225.934 139.671 226.532C138.215 227.104 136.642 227.39 134.952 227.39ZM135.381 222.788C136.161 222.788 136.889 222.619 137.565 222.281C138.241 221.917 138.826 221.423 139.32 220.799C139.84 220.175 140.243 219.46 140.529 218.654C140.841 217.822 140.997 216.925 140.997 215.963C140.997 214.507 140.633 213.376 139.905 212.57C139.177 211.738 138.189 211.322 136.941 211.322C136.135 211.322 135.381 211.491 134.679 211.829C134.003 212.167 133.405 212.635 132.885 213.233C132.391 213.831 132.001 214.533 131.715 215.339C131.429 216.145 131.286 217.029 131.286 217.991C131.286 219.447 131.65 220.617 132.378 221.501C133.106 222.359 134.107 222.788 135.381 222.788ZM156.982 227.429C154.512 227.429 152.757 226.753 151.717 225.401C150.677 224.049 150.443 222.112 151.015 219.59L154.915 202.664L161.272 200.48L156.709 220.136C156.501 221.02 156.592 221.683 156.982 222.125C157.372 222.567 158.009 222.788 158.893 222.788C159.413 222.788 159.855 222.749 160.219 222.671C160.609 222.593 160.973 222.502 161.311 222.398L160.297 226.844C159.907 227.026 159.439 227.169 158.893 227.273C158.373 227.377 157.736 227.429 156.982 227.429ZM149.143 211.556L150.157 207.11H164.821L163.807 211.556H149.143ZM70.4644 275L76.8994 246.92H82.9054L76.4704 275H70.4644ZM75.7684 264.119L76.8214 259.517H92.9284L91.8754 264.119H75.7684ZM78.6544 251.522L79.7074 246.92H96.7114L95.6584 251.522H78.6544ZM103.817 275.39C101.867 275.39 100.151 275 98.669 274.22C97.213 273.44 96.082 272.361 95.276 270.983C94.47 269.579 94.067 267.954 94.067 266.108C94.067 264.496 94.366 263.001 94.964 261.623C95.588 260.219 96.446 259.01 97.538 257.996C98.63 256.956 99.904 256.15 101.36 255.578C102.816 255.006 104.402 254.72 106.118 254.72C108.094 254.72 109.81 255.11 111.266 255.89C112.748 256.644 113.892 257.71 114.698 259.088C115.53 260.44 115.946 262.039 115.946 263.885C115.946 265.497 115.634 267.005 115.01 268.409C114.386 269.813 113.515 271.035 112.397 272.075C111.305 273.115 110.018 273.934 108.536 274.532C107.08 275.104 105.507 275.39 103.817 275.39ZM104.246 270.788C105.026 270.788 105.754 270.619 106.43 270.281C107.106 269.917 107.691 269.423 108.185 268.799C108.705 268.175 109.108 267.46 109.394 266.654C109.706 265.822 109.862 264.925 109.862 263.963C109.862 262.507 109.498 261.376 108.77 260.57C108.042 259.738 107.054 259.322 105.806 259.322C105 259.322 104.246 259.491 103.544 259.829C102.868 260.167 102.27 260.635 101.75 261.233C101.256 261.831 100.866 262.533 100.58 263.339C100.294 264.145 100.151 265.029 100.151 265.991C100.151 267.447 100.515 268.617 101.243 269.501C101.971 270.359 102.972 270.788 104.246 270.788ZM123.766 275.39C121.608 275.39 120.022 274.662 119.008 273.206C117.994 271.724 117.76 269.8 118.306 267.434L121.153 255.11H127.003L124.273 266.927C123.987 268.227 124.052 269.202 124.468 269.852C124.884 270.476 125.638 270.788 126.73 270.788C128.056 270.788 129.213 270.346 130.201 269.462C131.189 268.578 131.865 267.343 132.229 265.757L131.644 270.554C130.89 271.984 129.772 273.154 128.29 274.064C126.834 274.948 125.326 275.39 123.766 275.39ZM130.201 275L131.293 270.32H131.176L134.686 255.11H140.536L135.934 275H130.201ZM140.666 275L145.229 255.11H150.962L149.909 259.79H150.026L146.516 275H140.666ZM154.472 275L157.163 263.183C157.449 261.883 157.371 260.921 156.929 260.297C156.513 259.647 155.733 259.322 154.589 259.322C153.211 259.322 152.015 259.764 151.001 260.648C150.013 261.506 149.337 262.741 148.973 264.353L149.558 259.556C150.312 258.1 151.43 256.93 152.912 256.046C154.394 255.162 155.941 254.72 157.553 254.72C159.789 254.72 161.414 255.448 162.428 256.904C163.468 258.36 163.715 260.284 163.169 262.676L160.322 275H154.472ZM178.852 275L179.749 271.256L179.944 271.373C179.398 272.647 178.527 273.635 177.331 274.337C176.135 275.039 174.718 275.39 173.08 275.39C170.766 275.39 168.933 274.688 167.581 273.284C166.229 271.88 165.553 269.878 165.553 267.278C165.553 265.562 165.826 263.95 166.372 262.442C166.918 260.934 167.685 259.608 168.673 258.464C169.661 257.294 170.805 256.384 172.105 255.734C173.405 255.058 174.809 254.72 176.317 254.72C177.643 254.72 178.787 254.967 179.749 255.461C180.711 255.955 181.439 256.631 181.933 257.489C182.453 258.347 182.648 259.322 182.518 260.414H182.128L185.209 246.92H191.059L184.585 275H178.852ZM175.498 270.905C176.174 270.905 176.798 270.775 177.37 270.515C177.968 270.255 178.488 269.904 178.93 269.462C179.398 269.02 179.801 268.513 180.139 267.941C180.477 267.343 180.724 266.719 180.88 266.069C181.062 265.393 181.153 264.717 181.153 264.041C181.153 262.637 180.789 261.545 180.061 260.765C179.359 259.985 178.436 259.595 177.292 259.595C176.174 259.595 175.186 259.933 174.328 260.609C173.496 261.259 172.833 262.104 172.339 263.144C171.871 264.184 171.637 265.289 171.637 266.459C171.637 267.863 171.988 268.955 172.69 269.735C173.418 270.515 174.354 270.905 175.498 270.905Z" fill="#474747"/>
</svg>
